<svg xmlns="http://www.w3.org/2000/svg" viewBox="0 0 256 256"><defs><style>.a{fill:#09c;}.b{fill:#fff;}</style></defs><rect class="a" width="256" height="256"/><circle class="b" cx="125.25" cy="91.63" r="37.37"/><path class="b" d="M386.35,390c-1.9,1.15-7,3.71-15.56,4.33-15.42,1.12-73.57,1.12-89,0-8.56-.62-13.66-3.18-15.57-4.33-13-7.84-10.94-43-1.29-59.67,6.17-10.7,15.43-18.76,26.16-15.14,3.18,1.07,8.86,5.34,15.78,8.65,6,2.85,16.6,3.67,19.41,3.84,2.81-.17,13.44-1,19.41-3.84,6.91-3.31,12.6-7.58,15.78-8.65,10.73-3.62,20,4.44,26.16,15.14C397.3,347,399.39,382.13,386.35,390Z" transform="translate(-202 -192.5)"/></svg>
