<svg xmlns="http://www.w3.org/2000/svg" viewBox="0 0 360.07 360.07"><defs><style>.a{fill:#fff;}.b{fill:#36c4f0;}.c{fill:#e01e59;}.d{fill:#2eb57d;}.e{fill:#edb22e;}.f{fill:#3d0f3d;}.g{fill:#e8e8e8;}</style></defs><rect class="a" y="0.07" width="360" height="360"/><path class="b" d="M867.3,91.76a175.4,175.4,0,0,1-87.11,147.7,40.39,40.39,0,0,0-62.39,21.9A176.72,176.72,0,0,1,697,263.19V91.76Z" transform="translate(-696.95 -91.76)"/><path class="c" d="M867.3,451.76H697V280.29a175.91,175.91,0,0,1,20.55,1.79A40.38,40.38,0,0,0,781,304.5,175.39,175.39,0,0,1,867.3,451.76Z" transform="translate(-696.95 -91.76)"/><path class="d" d="M1057,91.83V263.29a175.59,175.59,0,0,1-21.41-1.9,40.38,40.38,0,0,0-62.17-22A175.37,175.37,0,0,1,886.6,91.83Z" transform="translate(-696.95 -91.76)"/><path class="e" d="M1057,280.37V451.83H886.6a175.36,175.36,0,0,1,86-147.09,40.38,40.38,0,0,0,63.27-22.51A177.06,177.06,0,0,1,1057,280.37Z" transform="translate(-696.95 -91.76)"/><path class="f" d="M758,243.52a28.32,28.32,0,1,0,28.32,28.32A28.32,28.32,0,0,0,758,243.52Zm12.3,27.65a10,10,0,1,1,10-10A10,10,0,0,1,770.25,271.17Z" transform="translate(-696.95 -91.76)"/><path class="f" d="M996,243.52a28.32,28.32,0,1,0,28.32,28.32A28.32,28.32,0,0,0,996,243.52Zm12.3,27.65a10,10,0,1,1,10-10A10,10,0,0,1,1008.25,271.17Z" transform="translate(-696.95 -91.76)"/><path class="g" d="M905.72,339.9c-2.79,2.11-15.54,6.19-27.86,6.21-12.62,0-24.83-4.05-27.68-6.21-3.89-2.95-4-11.26,1.3-15.43,3.17-2.51,10.76-2.06,17.56-.15,1.82.51,6.16.74,8.91,1,2.76-.22,7.09-.45,8.92-1,6.8-1.91,14.38-2.36,17.56.15C909.71,328.64,909.61,337,905.72,339.9Z" transform="translate(-696.95 -91.76)"/><path class="f" d="M788.19,198.29c-.46,7-7.56,14.6-14.48,16.43-3.85,1-8.55-.23-12.65.11a64.54,64.54,0,0,0-9.52,1.55l-.17.05A52.57,52.57,0,0,0,739,222c-3.46,2.24-6.34,5.21-10,6.75-6.6,2.78-16.89,1.1-21.51-4.13-8.69-9.82-7-20.33-.59-28,11.81-14.06,34.4-18.59,34.4-18.59h0c8.07-2.29,19.85-4.54,30.25-2.29C781.3,177.92,789.06,185.21,788.19,198.29Z" transform="translate(-696.95 -91.76)"/><path class="f" d="M965.58,195.29c.46,7,7.56,14.6,14.48,16.43,3.85,1,8.55-.23,12.65.11a64.54,64.54,0,0,1,9.52,1.55l.17.05a52.57,52.57,0,0,1,12.36,5.59c3.46,2.24,6.34,5.21,10,6.75,6.6,2.78,16.89,1.1,21.51-4.13,8.69-9.82,7-20.33.59-28-11.81-14.06-34.4-18.59-34.4-18.59h0c-8.07-2.29-19.85-4.54-30.25-2.29C972.47,174.92,964.71,182.21,965.58,195.29Z" transform="translate(-696.95 -91.76)"/><path class="f" d="M916.73,301.81a115.94,115.94,0,0,1-21.94,6.81,107.13,107.13,0,0,1-15.57,1.51l-2,.06h-.12l-2-.06a107.13,107.13,0,0,1-15.57-1.51,115.67,115.67,0,0,1-21.94-6.81c-14.68-6-22.12-12.65-20.19-20.44,1.44-5.78,6.11-8.72,11.32-7.67,4.21.84,7.58,3.74,12.65,6.7a145.15,145.15,0,0,0,14.38,6.38c8.82,3.18,37.68,3.16,42.8,0,4.84-3,13.3-5.75,14.38-6.38,5.07-3,8.44-5.86,12.65-6.7,5.21-1.05,9.88,1.89,11.31,7.67C938.85,289.16,931.41,295.77,916.73,301.81Z" transform="translate(-696.95 -91.76)"/></svg>

